<mxfile host="app.diagrams.net" modified="2021-10-04T19:53:55.897Z" agent="5.0 (Macintosh; Intel Mac OS X 10_15_7) AppleWebKit/605.1.15 (KHTML, like Gecko) Version/15.0 Safari/605.1.15" etag="wKp1lPZHXAjEUFtxnm3H" version="15.4.1" type="github">
  <diagram id="SwRV0uEczVV8MqBAX64z" name="Page-1">
    <mxGraphModel dx="983" dy="588" grid="1" gridSize="10" guides="1" tooltips="1" connect="1" arrows="1" fold="1" page="1" pageScale="1" pageWidth="827" pageHeight="1169" math="0" shadow="0">
      <root>
        <mxCell id="0" />
        <mxCell id="1" parent="0" />
        <mxCell id="a4_cbmze4R0DbBTKldTj-1" value="" style="rounded=0;whiteSpace=wrap;html=1;fontSize=13;align=left;strokeWidth=2;" vertex="1" parent="1">
          <mxGeometry x="80" y="240" width="640" height="90" as="geometry" />
        </mxCell>
        <mxCell id="a4_cbmze4R0DbBTKldTj-2" value="" style="shape=crossbar;whiteSpace=wrap;html=1;rounded=1;direction=south;fontSize=13;strokeWidth=2;fillColor=#E6E6E6;gradientColor=none;align=left;" vertex="1" parent="1">
          <mxGeometry x="150" y="240" width="20" height="90" as="geometry" />
        </mxCell>
        <mxCell id="a4_cbmze4R0DbBTKldTj-3" value="" style="shape=crossbar;whiteSpace=wrap;html=1;rounded=1;direction=south;fontSize=13;strokeWidth=2;fillColor=#E6E6E6;gradientColor=none;align=left;" vertex="1" parent="1">
          <mxGeometry x="230" y="240" width="20" height="90" as="geometry" />
        </mxCell>
        <mxCell id="a4_cbmze4R0DbBTKldTj-26" style="edgeStyle=orthogonalEdgeStyle;rounded=0;orthogonalLoop=1;jettySize=auto;html=1;exitX=0;exitY=0.5;exitDx=0;exitDy=0;entryX=0;entryY=0.5;entryDx=0;entryDy=0;entryPerimeter=0;fontSize=13;startArrow=none;startFill=0;endArrow=classic;endFill=1;strokeWidth=1;" edge="1" parent="1" source="a4_cbmze4R0DbBTKldTj-5" target="a4_cbmze4R0DbBTKldTj-20">
          <mxGeometry relative="1" as="geometry" />
        </mxCell>
        <mxCell id="a4_cbmze4R0DbBTKldTj-5" value="Size of payload" style="text;html=1;strokeColor=none;fillColor=none;align=center;verticalAlign=middle;whiteSpace=wrap;rounded=0;fontSize=13;" vertex="1" parent="1">
          <mxGeometry x="90" y="240" width="60" height="30" as="geometry" />
        </mxCell>
        <mxCell id="a4_cbmze4R0DbBTKldTj-6" value="Event string bits" style="text;html=1;strokeColor=none;fillColor=none;align=center;verticalAlign=middle;whiteSpace=wrap;rounded=0;fontSize=13;" vertex="1" parent="1">
          <mxGeometry x="290" y="240" width="60" height="30" as="geometry" />
        </mxCell>
        <mxCell id="a4_cbmze4R0DbBTKldTj-8" value="32 bit" style="rounded=1;whiteSpace=wrap;html=1;fontSize=13;strokeWidth=2;fillColor=#E6E6E6;gradientColor=none;align=center;" vertex="1" parent="1">
          <mxGeometry x="80" y="280" width="80" height="50" as="geometry" />
        </mxCell>
        <mxCell id="a4_cbmze4R0DbBTKldTj-25" style="edgeStyle=orthogonalEdgeStyle;rounded=0;orthogonalLoop=1;jettySize=auto;html=1;exitX=0.5;exitY=0;exitDx=0;exitDy=0;entryX=0;entryY=0.5;entryDx=0;entryDy=0;entryPerimeter=0;fontSize=13;startArrow=none;startFill=0;endArrow=classic;endFill=1;strokeWidth=1;" edge="1" parent="1" source="a4_cbmze4R0DbBTKldTj-9" target="a4_cbmze4R0DbBTKldTj-24">
          <mxGeometry relative="1" as="geometry" />
        </mxCell>
        <mxCell id="a4_cbmze4R0DbBTKldTj-9" value="Size of event string" style="text;html=1;strokeColor=none;fillColor=none;align=center;verticalAlign=middle;whiteSpace=wrap;rounded=0;fontSize=13;" vertex="1" parent="1">
          <mxGeometry x="165" y="240" width="70" height="30" as="geometry" />
        </mxCell>
        <mxCell id="a4_cbmze4R0DbBTKldTj-10" value="8 bit" style="rounded=1;whiteSpace=wrap;html=1;fontSize=13;strokeWidth=2;fillColor=#E6E6E6;gradientColor=none;align=center;" vertex="1" parent="1">
          <mxGeometry x="160" y="280" width="80" height="50" as="geometry" />
        </mxCell>
        <mxCell id="a4_cbmze4R0DbBTKldTj-11" value="" style="shape=crossbar;whiteSpace=wrap;html=1;rounded=1;direction=south;fontSize=13;strokeWidth=2;fillColor=#E6E6E6;gradientColor=none;align=left;" vertex="1" parent="1">
          <mxGeometry x="390" y="240" width="20" height="90" as="geometry" />
        </mxCell>
        <mxCell id="a4_cbmze4R0DbBTKldTj-13" value="8 bit" style="rounded=1;whiteSpace=wrap;html=1;fontSize=13;strokeWidth=2;fillColor=#E6E6E6;gradientColor=none;align=center;dashed=1;" vertex="1" parent="1">
          <mxGeometry x="320" y="280" width="40" height="50" as="geometry" />
        </mxCell>
        <mxCell id="a4_cbmze4R0DbBTKldTj-15" value="8 bit" style="rounded=1;whiteSpace=wrap;html=1;fontSize=13;strokeWidth=2;fillColor=#E6E6E6;gradientColor=none;align=center;dashed=1;" vertex="1" parent="1">
          <mxGeometry x="240" y="280" width="40" height="50" as="geometry" />
        </mxCell>
        <mxCell id="a4_cbmze4R0DbBTKldTj-16" value="8 bit" style="rounded=1;whiteSpace=wrap;html=1;fontSize=13;strokeWidth=2;fillColor=#E6E6E6;gradientColor=none;align=center;strokeColor=default;dashed=1;" vertex="1" parent="1">
          <mxGeometry x="280" y="280" width="40" height="50" as="geometry" />
        </mxCell>
        <mxCell id="a4_cbmze4R0DbBTKldTj-17" value="8 bit" style="rounded=1;whiteSpace=wrap;html=1;fontSize=13;strokeWidth=2;fillColor=#E6E6E6;gradientColor=none;align=center;dashed=1;" vertex="1" parent="1">
          <mxGeometry x="360" y="280" width="40" height="50" as="geometry" />
        </mxCell>
        <mxCell id="a4_cbmze4R0DbBTKldTj-19" style="edgeStyle=orthogonalEdgeStyle;rounded=0;orthogonalLoop=1;jettySize=auto;html=1;entryX=1;entryY=1;entryDx=0;entryDy=0;fontSize=13;startArrow=none;startFill=0;strokeWidth=1;endArrow=none;endFill=0;" edge="1" parent="1" source="a4_cbmze4R0DbBTKldTj-18" target="a4_cbmze4R0DbBTKldTj-16">
          <mxGeometry relative="1" as="geometry" />
        </mxCell>
        <mxCell id="a4_cbmze4R0DbBTKldTj-18" value="Amount of 8-bit pieces depend on the size of the string" style="rounded=1;whiteSpace=wrap;html=1;fontSize=13;strokeWidth=1;align=center;" vertex="1" parent="1">
          <mxGeometry x="255" y="400" width="130" height="60" as="geometry" />
        </mxCell>
        <mxCell id="a4_cbmze4R0DbBTKldTj-20" value="" style="shape=crossbar;whiteSpace=wrap;html=1;rounded=1;fontSize=13;strokeColor=#d79b00;strokeWidth=2;fillColor=#ffe6cc;align=center;perimeterSpacing=1;" vertex="1" parent="1">
          <mxGeometry x="80" y="160" width="670" height="20" as="geometry" />
        </mxCell>
        <mxCell id="a4_cbmze4R0DbBTKldTj-24" value="" style="shape=crossbar;whiteSpace=wrap;html=1;rounded=1;fontSize=13;strokeColor=#6c8ebf;strokeWidth=2;fillColor=#dae8fc;align=center;perimeterSpacing=1;" vertex="1" parent="1">
          <mxGeometry x="240" y="200" width="160" height="20" as="geometry" />
        </mxCell>
        <mxCell id="a4_cbmze4R0DbBTKldTj-27" value="Payload bits" style="text;html=1;strokeColor=none;fillColor=none;align=center;verticalAlign=middle;whiteSpace=wrap;rounded=0;fontSize=13;" vertex="1" parent="1">
          <mxGeometry x="510" y="240" width="120" height="30" as="geometry" />
        </mxCell>
        <mxCell id="a4_cbmze4R0DbBTKldTj-28" value="8 bit" style="rounded=1;whiteSpace=wrap;html=1;fontSize=13;strokeWidth=2;fillColor=#E6E6E6;gradientColor=none;align=center;dashed=1;" vertex="1" parent="1">
          <mxGeometry x="480" y="280" width="40" height="50" as="geometry" />
        </mxCell>
        <mxCell id="a4_cbmze4R0DbBTKldTj-29" value="8 bit" style="rounded=1;whiteSpace=wrap;html=1;fontSize=13;strokeWidth=2;fillColor=#E6E6E6;gradientColor=none;align=center;dashed=1;" vertex="1" parent="1">
          <mxGeometry x="400" y="280" width="40" height="50" as="geometry" />
        </mxCell>
        <mxCell id="a4_cbmze4R0DbBTKldTj-30" value="8 bit" style="rounded=1;whiteSpace=wrap;html=1;fontSize=13;strokeWidth=2;fillColor=#E6E6E6;gradientColor=none;align=center;strokeColor=default;dashed=1;" vertex="1" parent="1">
          <mxGeometry x="440" y="280" width="40" height="50" as="geometry" />
        </mxCell>
        <mxCell id="a4_cbmze4R0DbBTKldTj-31" value="8 bit" style="rounded=1;whiteSpace=wrap;html=1;fontSize=13;strokeWidth=2;fillColor=#E6E6E6;gradientColor=none;align=center;dashed=1;" vertex="1" parent="1">
          <mxGeometry x="520" y="280" width="40" height="50" as="geometry" />
        </mxCell>
        <mxCell id="a4_cbmze4R0DbBTKldTj-32" value="8 bit" style="rounded=1;whiteSpace=wrap;html=1;fontSize=13;strokeWidth=2;fillColor=#E6E6E6;gradientColor=none;align=center;dashed=1;" vertex="1" parent="1">
          <mxGeometry x="640" y="280" width="40" height="50" as="geometry" />
        </mxCell>
        <mxCell id="a4_cbmze4R0DbBTKldTj-33" value="8 bit" style="rounded=1;whiteSpace=wrap;html=1;fontSize=13;strokeWidth=2;fillColor=#E6E6E6;gradientColor=none;align=center;dashed=1;" vertex="1" parent="1">
          <mxGeometry x="560" y="280" width="40" height="50" as="geometry" />
        </mxCell>
        <mxCell id="a4_cbmze4R0DbBTKldTj-34" value="8 bit" style="rounded=1;whiteSpace=wrap;html=1;fontSize=13;strokeWidth=2;fillColor=#E6E6E6;gradientColor=none;align=center;strokeColor=default;dashed=1;" vertex="1" parent="1">
          <mxGeometry x="600" y="280" width="40" height="50" as="geometry" />
        </mxCell>
        <mxCell id="a4_cbmze4R0DbBTKldTj-35" value="8 bit" style="rounded=1;whiteSpace=wrap;html=1;fontSize=13;strokeWidth=2;fillColor=#E6E6E6;gradientColor=none;align=center;dashed=1;" vertex="1" parent="1">
          <mxGeometry x="680" y="280" width="40" height="50" as="geometry" />
        </mxCell>
        <mxCell id="a4_cbmze4R0DbBTKldTj-37" style="edgeStyle=orthogonalEdgeStyle;rounded=0;orthogonalLoop=1;jettySize=auto;html=1;entryX=0.5;entryY=1;entryDx=0;entryDy=0;fontSize=13;startArrow=none;startFill=0;endArrow=none;endFill=0;strokeWidth=1;" edge="1" parent="1" source="a4_cbmze4R0DbBTKldTj-36" target="a4_cbmze4R0DbBTKldTj-33">
          <mxGeometry relative="1" as="geometry" />
        </mxCell>
        <mxCell id="a4_cbmze4R0DbBTKldTj-36" value="Amount of 8-bit pieces depend on the size of the payload" style="rounded=1;whiteSpace=wrap;html=1;fontSize=13;strokeWidth=1;align=center;" vertex="1" parent="1">
          <mxGeometry x="515" y="400" width="130" height="60" as="geometry" />
        </mxCell>
      </root>
    </mxGraphModel>
  </diagram>
</mxfile>
